<?xml version="1.0" encoding="utf-8" ?>
<svg xmlns="http://www.w3.org/2000/svg" xmlns:xlink="http://www.w3.org/1999/xlink" width="512" height="512">
	<path d="M441.776 128.584C462.178 143.587 464.931 166.494 464.918 189.397L464.919 307.237C464.941 329.241 460.415 354.424 439.523 366.654C440.12 365.121 444.244 362.269 445.617 360.936C463.23 343.849 463.484 325.227 463.425 302.875L463.415 187.5C463.443 166.805 462.104 149.39 446.57 133.6C445.092 132.098 442.22 130.701 441.776 128.584Z"/>
	<path d="M223.826 453.946C210.009 452.039 197.748 441.968 186.174 434.916L96.6811 380.642C86.8215 374.77 75.7098 369.745 67.2088 361.945C49.8366 346.006 47.3299 329.624 47.4389 307.982L47.4339 195.255C47.4305 185.361 46.6239 174.56 48.6556 164.838C55.2576 133.248 75.8628 124.965 99.5348 109.989L209.373 41.2593C231.773 26.9018 249.475 12.9337 277.97 26.2583C285.58 29.8172 292.659 35.0182 299.743 39.5396L425.906 117.864C431.19 121.046 437.224 124.394 441.776 128.584C442.22 130.701 445.092 132.098 446.57 133.6C462.104 149.39 463.443 166.805 463.415 187.5L463.425 302.875C463.484 325.227 463.23 343.849 445.617 360.936C444.244 362.269 440.12 365.121 439.523 366.654C438.156 368.845 427.408 374.052 424.567 375.723L329.384 433.455C317.365 440.651 303.738 450.768 289.951 453.946C288.033 462.846 287.713 469.734 281.236 476.866C269.883 489.369 246.554 491.177 234.008 479.435C226.675 472.572 224.2 463.679 223.826 453.946ZM106.945 225.756C106.416 232.453 107.002 239.999 106.926 246.84C106.688 268.206 107.019 289.596 106.945 310.97C108.541 311.801 110.298 312.572 111.761 313.613C113.376 314.286 114.997 315.494 116.513 316.397L205.537 370.14C211.25 373.639 217.921 377.069 223.276 380.947C224.001 375.377 223.825 369.734 223.837 364.128L223.829 307.801C223.825 302.491 224.065 297.163 223.826 291.857C212.927 291.5 206.694 285.65 197.69 280.11L130.564 239.597C122.718 234.954 114.663 230.607 106.945 225.756ZM290.43 292.92C290.687 296.08 290.459 299.394 290.432 302.57L290.418 367.677C290.404 371.021 289.216 378.079 290.43 380.947C298.558 374.573 307.684 369.468 316.528 364.164L387.125 321.479C393.126 317.875 399.081 313.949 405.424 310.97L405.435 237.367C405.405 233.499 405.607 229.62 405.424 225.756C401.069 227.783 396.959 230.988 392.805 233.454L310.746 283.13C304.529 286.845 297.799 291.949 290.43 292.92ZM223.276 102.078C218.224 103.77 213.366 107.476 208.785 110.215L144.717 149C138.625 152.641 132.216 155.961 126.458 160.108C134.935 163.709 155.219 177.098 163.009 182.254C183.05 193.652 202.853 208.097 222.771 218.647C222.721 198.193 224.375 104.142 223.276 102.078ZM290.43 102.078C288.875 109.67 289.958 117.856 289.953 125.569L289.95 203.598C289.939 208.423 289.431 213.922 290.43 218.647C298.35 212.439 310.338 205.969 319.145 200.635L338.892 188.656C342.456 186.501 345.974 184.214 349.648 182.254C361.291 173.969 374.508 167.914 385.619 160.108C378.98 155.425 371.564 151.528 364.639 147.251L311.543 114.958C307.489 112.506 293.688 103.046 290.43 102.078ZM106.046 310.97C107.436 312.241 109.863 313.579 111.761 313.613C110.298 312.572 108.541 311.801 106.945 310.97C107.019 289.596 106.688 268.206 106.926 246.84C107.002 239.999 106.416 232.453 106.945 225.756L106.711 225.572C104.427 228.013 105.34 243.096 105.341 247.128L105.418 283.559C105.429 292.622 105.184 301.95 106.046 310.97ZM290.43 380.947C289.216 378.079 290.404 371.021 290.418 367.677L290.432 302.57C290.459 299.394 290.687 296.08 290.43 292.92C288.577 294.515 289.019 337.014 288.943 342.495C288.818 351.439 286.545 380.611 290.43 380.947Z"/>
	<defs>
		<linearGradient id="gradient_0" gradientUnits="userSpaceOnUse" x1="289.52567" y1="366.11255" x2="288.52896" y2="366.14355">
			<stop offset="0" stop-color="black" stop-opacity="0.90980393"/>
			<stop offset="1" stop-color="black" stop-opacity="0.94509804"/>
		</linearGradient>
	</defs>
	<path fill="url(#gradient_0)" d="M290.43 380.947C286.545 380.611 288.818 351.439 288.943 342.495C289.019 337.014 288.577 294.515 290.43 292.92C290.687 296.08 290.459 299.394 290.432 302.57L290.418 367.677C290.404 371.021 289.216 378.079 290.43 380.947Z"/>
	<path d="M106.046 310.97C105.184 301.95 105.429 292.622 105.418 283.559L105.341 247.128C105.34 243.096 104.427 228.013 106.711 225.572L106.945 225.756C106.416 232.453 107.002 239.999 106.926 246.84C106.688 268.206 107.019 289.596 106.945 310.97C108.541 311.801 110.298 312.572 111.761 313.613C109.863 313.579 107.436 312.241 106.046 310.97Z"/>
</svg>
