<?xml version="1.0" encoding="utf-8" ?>
<svg xmlns="http://www.w3.org/2000/svg" xmlns:xlink="http://www.w3.org/1999/xlink" width="986" height="493">
	<path transform="matrix(0.481445 0 0 0.481445 0 7.62939e-06)" d="M776.698 377.178C784.46 376.268 791.783 376.507 798.954 379.949Q799.731 380.325 800.488 380.739Q801.245 381.153 801.981 381.604Q802.717 382.055 803.429 382.542Q804.142 383.029 804.83 383.55Q805.517 384.071 806.179 384.626Q806.84 385.181 807.473 385.767Q808.106 386.354 808.709 386.971Q809.312 387.588 809.885 388.234Q810.457 388.88 810.996 389.554Q811.536 390.227 812.041 390.927Q812.547 391.626 813.018 392.349Q813.488 393.073 813.922 393.819Q814.357 394.564 814.754 395.331Q815.151 396.097 815.509 396.882Q815.868 397.667 816.187 398.469Q816.507 399.271 816.786 400.087Q817.079 400.908 817.331 401.743Q817.583 402.578 817.792 403.425Q818.002 404.271 818.168 405.127Q818.335 405.983 818.458 406.846Q818.582 407.71 818.661 408.578Q818.741 409.446 818.777 410.318Q818.813 411.189 818.805 412.061Q818.797 412.933 818.745 413.803Q818.694 414.674 818.598 415.541Q818.503 416.408 818.364 417.268Q818.225 418.129 818.043 418.982Q817.86 419.835 817.636 420.678Q817.411 421.52 817.144 422.35Q816.877 423.181 816.569 423.996Q816.261 424.812 815.912 425.611Q815.563 426.41 815.174 427.191C810.064 437.424 801.359 442.913 790.883 446.465C782.455 447.567 774.369 446.715 766.826 442.553Q766.059 442.131 765.314 441.672Q764.569 441.213 763.847 440.717Q763.126 440.222 762.43 439.691Q761.734 439.16 761.066 438.595Q760.397 438.03 759.758 437.433Q759.118 436.835 758.509 436.207Q757.9 435.578 757.323 434.92Q756.746 434.262 756.202 433.576Q755.658 432.89 755.15 432.178Q754.641 431.466 754.168 430.73Q753.695 429.993 753.26 429.234Q752.824 428.475 752.427 427.695Q752.029 426.915 751.671 426.116Q751.313 425.318 750.996 424.502Q750.678 423.687 750.401 422.856Q750.124 422.026 749.889 421.183Q749.647 420.337 749.448 419.48Q749.249 418.623 749.093 417.757Q748.937 416.891 748.824 416.019Q748.711 415.146 748.641 414.269Q748.572 413.392 748.546 412.513Q748.521 411.633 748.538 410.754Q748.557 409.874 748.618 408.996Q748.68 408.119 748.785 407.245Q748.891 406.372 749.039 405.504Q749.188 404.637 749.379 403.779Q749.571 402.92 749.805 402.072Q750.039 401.224 750.315 400.388Q750.591 399.553 750.908 398.732Q751.225 397.911 751.583 397.108Q751.94 396.304 752.337 395.518Q752.734 394.733 753.17 393.969C758.452 384.807 766.692 379.808 776.698 377.178Z"/>
	<path transform="matrix(0.481445 0 0 0.481445 0 7.62939e-06)" d="M1029.57 590.311C1046.24 587.931 1065.18 589.698 1082.07 589.728Q1130.14 589.54 1178.21 589.87C1178.37 590.131 1178.53 590.387 1178.67 590.654C1181.51 596.029 1179.87 605.972 1178.23 611.53C1175.93 619.329 1171.64 627.897 1164.27 631.973C1164.23 632.133 1164.22 632.3 1164.16 632.452C1162.79 635.885 1154.58 639.516 1151.38 640.749C1127.25 650.043 1077.39 649.567 1052.4 643.404C1044.35 641.42 1036.89 637.325 1029.38 633.908C1029.62 633.438 1029.84 632.955 1030.05 632.468C1032.28 627.246 1031.82 595.729 1029.57 590.311Z"/>
	<path transform="matrix(0.481445 0 0 0.481445 0 7.62939e-06)" d="M747.661 457.272C771.852 456.765 796.201 457.654 820.423 457.52L820.191 628.7L747.744 628.613C748.979 571.633 748.157 514.272 747.661 457.272Z"/>
	<path transform="matrix(0.481445 0 0 0.481445 0 7.62939e-06)" d="M1084.95 456.493C1095.87 455.368 1107.42 456.037 1118.41 456.033L1178.12 456.046C1178.67 456.855 1179.06 457.632 1179.29 458.594C1180.88 465.17 1179.61 474.382 1179.58 481.159C1179.48 507.17 1181.69 530.45 1166.17 553.004Q1165.18 554.462 1164.12 555.87Q1163.06 557.277 1161.93 558.631Q1160.81 559.984 1159.61 561.28Q1158.42 562.575 1157.16 563.81Q1155.9 565.045 1154.59 566.217Q1153.27 567.388 1151.9 568.492Q1150.53 569.597 1149.1 570.632Q1147.68 571.667 1146.2 572.631Q1144.72 573.594 1143.2 574.483Q1141.68 575.372 1140.12 576.185Q1138.56 576.998 1136.95 577.732Q1135.35 578.466 1133.72 579.12Q1132.08 579.774 1130.41 580.346Q1128.75 580.918 1127.06 581.407Q1125.36 581.896 1123.65 582.301Q1121.93 582.705 1120.2 583.024C1119.56 583.353 1118.94 583.519 1118.25 583.693C1100 588.278 1076.92 583.445 1061.02 573.793C1046.1 564.735 1035.36 550.543 1031.25 533.515Q1030.88 532.025 1030.59 530.518Q1030.29 529.011 1030.07 527.491Q1029.85 525.972 1029.71 524.443Q1029.56 522.915 1029.5 521.381Q1029.43 519.847 1029.43 518.312Q1029.44 516.777 1029.52 515.244Q1029.6 513.71 1029.76 512.183Q1029.92 510.656 1030.15 509.138Q1030.39 507.621 1030.69 506.117Q1031 504.613 1031.38 503.125Q1031.76 501.638 1032.22 500.171Q1032.67 498.705 1033.2 497.262Q1033.72 495.82 1034.32 494.405Q1034.92 492.99 1035.58 491.607Q1036.25 490.223 1036.98 488.874Q1037.71 487.524 1038.51 486.213C1049.22 468.73 1065.82 461.133 1084.95 456.493Z"/>
	<path transform="matrix(0.481445 0 0 0.481445 0 7.62939e-06)" d="M1201.03 377.499C1223.96 376.427 1247.53 377.022 1270.48 377.655C1270.55 377.789 1270.64 377.92 1270.71 378.057C1270.82 378.285 1270.93 378.52 1271.04 378.749C1271.86 380.393 1272.22 381.644 1272.33 383.478C1273.26 397.852 1272.64 412.625 1272.65 427.048L1272.52 511.434L1272.65 584.751C1272.68 597.144 1273.31 609.864 1272.57 622.219C1272.36 625.561 1272.58 626.315 1270.37 628.813C1247.31 630.792 1222.96 629.139 1199.8 628.994C1200.8 627.245 1201.24 625.835 1201.39 623.82C1202.11 613.707 1201.52 603.071 1201.51 592.899L1201.34 531.352C1201.22 480.111 1202.12 428.72 1201.03 377.499Z"/>
	<path transform="matrix(0.481445 0 0 0.481445 0 7.62939e-06)" d="M915.525 450.286Q919.603 449.915 923.698 449.922Q924.752 449.913 925.806 449.929Q926.859 449.946 927.913 449.989Q928.966 450.032 930.017 450.102Q931.069 450.171 932.119 450.266Q933.168 450.362 934.215 450.483Q935.262 450.605 936.306 450.752Q937.349 450.9 938.389 451.073Q939.428 451.246 940.463 451.446Q941.498 451.645 942.528 451.87Q943.557 452.095 944.581 452.346Q945.605 452.596 946.622 452.872Q947.639 453.148 948.649 453.449Q949.659 453.75 950.662 454.077Q951.664 454.403 952.657 454.754Q953.651 455.105 954.636 455.481Q955.621 455.856 956.596 456.256Q957.571 456.656 958.535 457.081Q959.5 457.505 960.454 457.953Q961.408 458.401 962.351 458.873Q963.293 459.345 964.224 459.84Q965.154 460.335 966.072 460.853Q966.99 461.371 967.894 461.912Q968.799 462.452 969.69 463.015Q970.581 463.579 971.457 464.164Q972.334 464.749 973.196 465.356Q974.058 465.962 974.904 466.59Q975.75 467.218 976.581 467.867Q977.412 468.516 978.226 469.185Q979.04 469.855 979.837 470.544Q980.634 471.234 981.414 471.943Q982.194 472.652 982.956 473.38Q983.717 474.108 984.461 474.855C1010.97 501.542 1008.37 534.005 1008.35 568.711L1008.33 628.666L936.59 628.539C936.827 608.468 936.561 588.382 936.646 568.308C936.695 556.632 938.029 543.201 936.148 531.711C935.708 529.022 934.345 526.871 932.857 524.639C930.682 523.202 928.008 521.734 925.359 521.564C922.565 521.385 920.078 522.207 918.048 524.152C915.919 526.193 914.802 529.257 914.344 532.105C912.708 542.294 913.787 553.844 913.799 564.217L913.902 628.682L841.02 628.557L840.902 563.364C840.88 548.972 839.782 533.699 842.668 519.553Q843.147 517.224 843.746 514.923Q844.345 512.622 845.062 510.355Q845.779 508.088 846.612 505.861Q847.446 503.634 848.393 501.453Q849.34 499.273 850.399 497.144Q851.458 495.015 852.625 492.943Q853.793 490.872 855.066 488.864Q856.339 486.856 857.714 484.916C871.796 465.06 891.883 454.359 915.525 450.286Z"/>
	<path transform="matrix(0.481445 0 0 0.481445 0 7.62939e-06)" d="M1379.13 449.5C1403.74 447.774 1428.24 454.551 1447.44 470.328Q1448.3 471.031 1449.14 471.755Q1449.97 472.479 1450.8 473.224Q1451.62 473.969 1452.42 474.733Q1453.22 475.498 1454.01 476.282Q1454.79 477.066 1455.55 477.869Q1456.32 478.672 1457.06 479.494Q1457.8 480.316 1458.53 481.156Q1459.25 481.996 1459.95 482.853Q1460.66 483.71 1461.34 484.585Q1462.02 485.459 1462.68 486.35Q1463.34 487.241 1463.97 488.148Q1464.61 489.055 1465.22 489.977Q1465.84 490.9 1466.43 491.837Q1467.02 492.774 1467.59 493.726Q1468.16 494.677 1468.71 495.642Q1469.25 496.608 1469.77 497.586Q1470.29 498.564 1470.79 499.555Q1471.29 500.546 1471.76 501.549Q1472.23 502.552 1472.68 503.566Q1473.12 504.58 1473.55 505.605Q1473.97 506.63 1474.36 507.665Q1474.76 508.7 1475.13 509.744Q1475.5 510.788 1475.85 511.842Q1476.19 512.895 1476.51 513.956Q1476.83 515.018 1477.13 516.087Q1477.42 517.156 1477.69 518.231Q1477.95 519.307 1478.19 520.389Q1478.43 521.471 1478.65 522.559Q1478.86 523.647 1479.04 524.739Q1479.23 525.832 1479.39 526.929Q1479.55 528.026 1479.68 529.126Q1479.81 530.227 1479.92 531.33C1482.2 555.443 1475.61 578.605 1460.02 597.266C1443.38 617.185 1420.87 628.147 1395.24 630.526Q1393.18 630.707 1391.11 630.796Q1389.03 630.884 1386.96 630.879Q1384.89 630.874 1382.82 630.775Q1380.75 630.677 1378.69 630.486Q1376.62 630.294 1374.57 630.01Q1372.52 629.726 1370.48 629.35Q1368.44 628.974 1366.42 628.506Q1364.41 628.038 1362.41 627.48Q1360.41 626.922 1358.45 626.275Q1356.48 625.628 1354.54 624.892Q1352.6 624.157 1350.7 623.335Q1348.8 622.514 1346.93 621.607Q1345.07 620.7 1343.25 619.711Q1341.43 618.721 1339.65 617.651Q1337.88 616.58 1336.16 615.431Q1334.43 614.282 1332.76 613.056Q1331.86 612.404 1330.98 611.73Q1330.1 611.057 1329.23 610.361Q1328.37 609.665 1327.52 608.948Q1326.67 608.231 1325.84 607.494Q1325.01 606.756 1324.2 605.998Q1323.39 605.239 1322.6 604.461Q1321.81 603.683 1321.03 602.885Q1320.26 602.088 1319.51 601.271Q1318.76 600.455 1318.03 599.62Q1317.29 598.785 1316.58 597.932Q1315.87 597.078 1315.18 596.208Q1314.5 595.338 1313.83 594.45Q1313.16 593.563 1312.52 592.659Q1311.87 591.756 1311.25 590.836Q1310.63 589.917 1310.03 588.982Q1309.43 588.048 1308.85 587.098Q1308.28 586.149 1307.72 585.186Q1307.17 584.223 1306.64 583.246Q1306.12 582.269 1305.61 581.28Q1305.11 580.29 1304.63 579.288Q1304.15 578.287 1303.7 577.273Q1303.25 576.26 1302.82 575.236Q1302.39 574.211 1301.99 573.177Q1301.58 572.142 1301.21 571.098Q1300.83 570.053 1300.48 569Q1300.13 567.946 1299.81 566.885Q1299.48 565.823 1299.18 564.753Q1298.89 563.684 1298.62 562.607Q1298.34 561.531 1298.1 560.448Q1297.86 559.365 1297.64 558.276Q1297.42 557.187 1297.23 556.093Q1297.04 554.999 1296.88 553.901C1293.34 530.36 1299.16 505.329 1313.45 486.201C1329.73 464.409 1352.64 453.265 1379.13 449.5Z"/>
	<path transform="matrix(0.481445 0 0 0.481445 0 7.62939e-06)" d="M567.38 377.127L639.934 377.043L639.821 456.413C663.045 457.203 682.593 461.081 700.482 476.949Q701.294 477.68 702.088 478.431Q702.882 479.181 703.658 479.951Q704.433 480.721 705.19 481.51Q705.946 482.298 706.683 483.105Q707.42 483.912 708.136 484.737Q708.853 485.562 709.55 486.404Q710.246 487.246 710.921 488.105Q711.597 488.964 712.251 489.839Q712.905 490.715 713.538 491.606Q714.171 492.497 714.781 493.403Q715.392 494.309 715.98 495.23Q716.568 496.151 717.133 497.086Q717.699 498.021 718.241 498.97Q718.783 499.919 719.302 500.88Q719.821 501.842 720.316 502.816Q720.811 503.79 721.282 504.776Q721.754 505.762 722.2 506.759Q722.647 507.756 723.07 508.764Q723.492 509.772 723.889 510.79Q724.287 511.808 724.659 512.835Q725.031 513.863 725.378 514.899Q725.725 515.935 726.047 516.979Q726.369 518.024 726.664 519.076Q726.96 520.127 727.23 521.186Q727.5 522.245 727.744 523.31Q727.988 524.375 728.206 525.446Q728.424 526.517 728.615 527.593Q728.806 528.669 728.971 529.749Q729.136 530.829 729.275 531.913Q729.413 532.997 729.525 534.084Q729.637 535.171 729.722 536.26Q729.808 537.35 729.866 538.441C731.27 564.289 722.238 586.322 705.109 605.378C688.109 620.934 670.707 630.118 647.232 630.139C625.918 630.158 605.683 623.017 590.482 607.775Q589.502 606.794 588.558 605.778Q587.614 604.762 586.706 603.713Q585.799 602.664 584.93 601.584Q584.06 600.503 583.23 599.392Q582.399 598.281 581.609 597.142Q580.819 596.002 580.07 594.835Q579.321 593.667 578.614 592.474Q577.907 591.281 577.243 590.063Q576.58 588.846 575.96 587.605Q575.34 586.365 574.764 585.103Q574.189 583.841 573.659 582.559Q573.129 581.278 572.645 579.978Q572.161 578.678 571.723 577.362Q571.286 576.046 570.896 574.715Q570.506 573.384 570.164 572.04Q569.821 570.696 569.527 569.341C564.983 548.732 567.512 524.298 567.453 503.156L567.38 377.127Z"/>
</svg>
